<svg viewBox="0 0 60 24" xmlns="http://www.w3.org/2000/svg" title="Huge"><path fill="#ea178c" d="M8.112.048v9.936H4.128V.048H.144v23.856h3.984v-9.936h3.984v9.936h3.984V.048H8.112"></path><path fill="#ea178c" d="M24.096.048V18.96c0 .528-.432 1.008-1.008 1.008h-2.016c-.528 0-1.008-.432-1.008-1.008V.048h-3.936v19.92c0 2.208 1.776 3.984 3.984 3.984h3.984c2.208 0 3.984-1.776 3.984-3.984V.048h-3.984"></path><path fill="#ea178c" d="M60 4.032V.048H48.048v23.856H60V19.92h-7.968v-5.952h3.984V9.984h-3.984V4.032H60"></path><path fill="#ea178c" d="M44.016 6.048V4.032c0-2.208-1.776-3.984-3.984-3.984h-3.984c-2.208 0-3.984 1.776-3.984 3.984v15.936c0 2.208 1.776 3.984 3.984 3.984h3.984c2.208 0 3.984-1.776 3.984-3.984v-9.936h-5.952v3.984h2.016v4.944c0 .528-.432 1.008-1.008 1.008h-2.016c-.528 0-1.008-.432-1.008-1.008V5.04c0-.528.432-1.008 1.008-1.008h2.016c.528 0 1.008.432 1.008 1.008v1.008h3.936"></path></svg>