<svg viewBox="0 0 60 24" xmlns="http://www.w3.org/2000/svg" xmlns:xlink="http://www.w3.org/1999/xlink" overflow="hidden"><path d="M8.112 0.048 8.112 9.984 4.128 9.984 4.128 0.048 0.144 0.048 0.144 23.904 4.128 23.904 4.128 13.968 8.112 13.968 8.112 23.904 12.096 23.904 12.096 0.048 8.112 0.048" fill="#FFFFFF"/><path d="M24.096 0.048 24.096 18.96C24.096 19.488 23.664 19.968 23.088 19.968L21.072 19.968C20.544 19.968 20.064 19.536 20.064 18.96L20.064 0.048 16.128 0.048 16.128 19.968C16.128 22.176 17.904 23.952 20.112 23.952L24.096 23.952C26.304 23.952 28.08 22.176 28.08 19.968L28.08 0.048 24.096 0.048" fill="#FFFFFF"/><path d="M60 4.032 60 0.048 48.048 0.048 48.048 23.904 60 23.904 60 19.92 52.032 19.92 52.032 13.968 56.016 13.968 56.016 9.984 52.032 9.984 52.032 4.032 60 4.032" fill="#FFFFFF"/><path d="M44.016 6.048 44.016 4.032C44.016 1.824 42.24 0.048 40.032 0.048L36.048 0.048C33.84 0.048 32.064 1.824 32.064 4.032L32.064 19.968C32.064 22.176 33.84 23.952 36.048 23.952L40.032 23.952C42.24 23.952 44.016 22.176 44.016 19.968L44.016 10.032 38.064 10.032 38.064 14.016 40.08 14.016 40.08 18.96C40.08 19.488 39.648 19.968 39.072 19.968L37.056 19.968C36.528 19.968 36.048 19.536 36.048 18.96L36.048 5.04C36.048 4.512 36.48 4.032 37.056 4.032L39.072 4.032C39.6 4.032 40.08 4.464 40.08 5.04L40.08 6.048 44.016 6.048" fill="#FFFFFF"/></svg>